#!OML:ASF F:\VICON\USERDATA\INSTALL\rory3\rory3.ASF
:FULLY-SPECIFIED
:DEGREES
253
root 4.64854 17.1186 2.37711 16.9836 -6.1386 -9.7521
lowerback 2.41768 -0.49636 4.88504
upperback -2.11398 -0.363141 3.38821
thorax -3.55139 -0.261331 0.780063
lowerneck -13.4786 -1.58838 -1.93525
upperneck 40.08 -1.97958 -0.111286
head 16.789 -1.19384 -0.072574
rclavicle 1.25234e-014 -3.57812e-014
rhumerus 14.716 15.462 -26.8984
rradius 87.5684
rwrist -13.1145
rhand -11.4471 -42.0935
rfingers 7.12502
rthumb 14.5897 -71.5604
lclavicle 1.25234e-014 -3.57812e-014
lhumerus 34.0976 2.07549 17.5424
lradius 36.1135
lwrist 30.2921
lhand -19.1513 -20.6624
lfingers 7.12502
lthumb 7.15911 9.19647
rfemur -31.844 9.3046 4.40202
rtibia 48.7049
rfoot 22.7255 -7.3919
rtoes -11.6021
lfemur -37.2215 -1.46268 -17.7178
ltibia 41.4717
lfoot -18.6771 6.33187
ltoes 14.2352
254
root 4.64695 17.114 2.37562 16.9032 -6.28252 -9.64633
lowerback 2.58343 -0.459894 4.68049
upperback -2.11031 -0.311988 3.34032
thorax -3.63851 -0.232458 0.843302
lowerneck -13.3969 -1.63654 -1.8879
upperneck 40.0722 -2.03601 -0.197418
head 16.7624 -1.2223 -0.128582
rclavicle 1.23246e-014 7.7526e-015
rhumerus 14.3723 15.9155 -27.2882
rradius 87.1037
rwrist -12.816
rhand -11.437 -41.7512
rfingers 7.12502
rthumb 14.5994 -71.2174
lclavicle 1.23246e-014 7.7526e-015
lhumerus 33.9076 1.84357 18.1154
lradius 36.0162
lwrist 29.9348
lhand -18.9328 -20.374
lfingers 7.12502
lthumb 7.37005 9.47766
rfemur -32.3758 9.52971 4.36635
rtibia 49.4014
rfoot 23.0665 -8.38433
rtoes -9.49409
lfemur -37.1565 -1.53628 -17.8294
ltibia 41.4611
lfoot -18.6699 6.586
ltoes 13.9698
255
root 4.65299 17.1137 2.38114 16.8158 -6.31976 -9.6712
lowerback 2.64374 -0.453548 4.7276
upperback -2.0696 -0.299267 3.34072
thorax -3.63054 -0.226804 0.816842
lowerneck -13.2944 -1.66454 -1.87238
upperneck 39.9983 -2.04203 -0.303414
head 16.6944 -1.23738 -0.177677
rclavicle 1.63997e-015 1.43125e-014
rhumerus 14.0408 16.3318 -27.6729
rradius 86.6444
rwrist -12.5863
rhand -11.4868 -41.3128
rfingers 7.12502
rthumb 14.5515 -70.7825
lclavicle 1.63997e-015 1.43125e-014
lhumerus 33.5093 1.59497 18.6254
lradius 36.1303
lwrist 29.6449
lhand -18.9176 -20.3918
lfingers 7.12502
lthumb 7.38468 9.45931
rfemur -32.7593 9.6094 4.5222
rtibia 50.1013
rfoot 23.0263 -9.22448
rtoes -8.27475
lfemur -37.0394 -1.73426 -17.7944
ltibia 41.4643
lfoot -18.6173 6.88033
ltoes 14.0106
256
root 4.66269 17.1127 2.38906 16.7342 -6.34485 -9.59852
lowerback 2.42871 -0.447982 4.75916
upperback -1.82275 -0.321677 3.28656
thorax -3.25345 -0.231389 0.739016
lowerneck -13.4994 -1.6699 -1.84417
upperneck 39.8336 -2.05167 -0.297915
head 16.6564 -1.23421 -0.18244
rclavicle 3.56322e-014 -1.64991e-014
rhumerus 13.7915 16.4663 -28.058
rradius 86.2369
rwrist -12.3152
rhand -11.3118 -41.1746
rfingers 7.12502
rthumb 14.7201 -70.632
lclavicle 3.56322e-014 -1.64991e-014
lhumerus 32.8299 1.03241 18.3851
lradius 36.7219
lwrist 30.3349
lhand -19.5433 -20.5224
lfingers 7.12502
lthumb 6.78074 9.34899
rfemur -33.171 9.54241 4.59675
rtibia 50.8507
rfoot 22.679 -10.3791
rtoes -5.46434
lfemur -36.9207 -1.98323 -17.8836
ltibia 41.4782
lfoot -18.6023 7.1456
ltoes 14.2353
257
root 4.6699 17.1053 2.39355 16.6955 -6.45212 -9.46711
lowerback 2.61201 -0.454044 4.65186
upperback -1.83973 -0.321593 3.21556
thorax -3.37403 -0.231582 0.727513
lowerneck -13.5356 -1.6592 -1.84676
upperneck 39.7793 -2.07492 -0.197129
head 16.6379 -1.23041 -0.141308
rclavicle -4.96962e-016 -5.4467e-014
rhumerus 13.4434 16.8696 -28.5784
rradius 85.8087
rwrist -12.0664
rhand -11.0312 -40.6954
rfingers 7.12502
rthumb 14.9905 -70.1328
lclavicle -4.96962e-016 -5.4467e-014
lhumerus 31.5803 -0.898109 16.8597
lradius 37.8553
lwrist 32.7519
lhand -20.2958 -20.4693
lfingers 7.12502
lthumb 6.05424 9.42419
rfemur -33.7656 9.48708 4.58855
rtibia 51.6764
rfoot 22.5024 -11.6029
rtoes -3.59464
lfemur -36.868 -2.14099 -18.0578
ltibia 41.5009
lfoot -18.6015 7.4498
ltoes 14.0731
258
root 4.67387 17.0967 2.39132 16.7247 -6.48983 -9.42
lowerback 2.719 -0.462626 4.61201
upperback -1.80598 -0.330093 3.16848
thorax -3.39954 -0.235439 0.702237
lowerneck -13.7282 -1.66594 -1.82338
upperneck 39.7972 -2.1163 -0.130418
head 16.6973 -1.23402 -0.125714
rclavicle -1.62506e-014 -1.27222e-014
rhumerus 13.2527 17.1349 -29.1318
rradius 85.2238
rwrist -11.8247
rhand -11.0805 -39.7396
rfingers 7.12502
rthumb 14.9429 -69.1805
lclavicle -1.62506e-014 -1.27222e-014
lhumerus 31.433 -1.23369 17.1086
lradius 37.7073
lwrist 32.9256
lhand -20.0617 -20.34
lfingers 7.12502
lthumb 6.28029 9.54687
rfemur -34.4453 9.41853 4.72069
rtibia 52.5719
rfoot 22.2561 -12.7068
rtoes -3.40435
lfemur -36.9415 -2.28356 -18.0987
ltibia 41.5344
lfoot -18.5423 7.65441
ltoes 13.8682
259
root 4.6754 17.0918 2.38316 16.7155 -6.43952 -9.33995
lowerback 2.91044 -0.498083 4.51505
upperback -1.82343 -0.36748 3.15102
thorax -3.52594 -0.253865 0.74273
lowerneck -13.8527 -1.64666 -1.81126
upperneck 39.9108 -2.10034 -0.106037
head 16.7907 -1.2221 -0.116818
rclavicle -2.08227e-014 2.20651e-014
rhumerus 12.8722 17.5169 -29.598
rradius 84.7795
rwrist -11.4818
rhand -11.4049 -39.334
rfingers 7.12502
rthumb 14.6304 -68.798
lclavicle -2.08227e-014 2.20651e-014
lhumerus 31.2418 -1.44669 17.6642
lradius 37.5296
lwrist 32.6423
lhand -20.0197 -20.3778
lfingers 7.12502
lthumb 6.32084 9.50786
rfemur -35.134 9.3099 4.89729
rtibia 53.5344
rfoot 22.0774 -13.439
rtoes -4.04876
lfemur -37.0273 -2.48954 -18.1361
ltibia 41.6027
lfoot -18.4856 7.80102
ltoes 13.602
